<mxfile host="app.diagrams.net" agent="Mozilla/5.0 (Windows NT 10.0; Win64; x64) AppleWebKit/537.36 (KHTML, like Gecko) Chrome/133.0.0.0 Safari/537.36 Edg/133.0.0.0" version="26.0.14">
  <diagram name="PÃ¡gina-1" id="Q72Kn73PycrUvGZdhlNY">
    <mxGraphModel dx="786" dy="463" grid="1" gridSize="10" guides="1" tooltips="1" connect="1" arrows="1" fold="1" page="1" pageScale="1" pageWidth="1600" pageHeight="1200" math="0" shadow="0">
      <root>
        <mxCell id="0" />
        <mxCell id="1" parent="0" />
        <mxCell id="PKigR5jAfMhW18SdABPB-1" value="" style="endArrow=none;html=1;rounded=0;entryX=0;entryY=0;entryDx=10;entryDy=70;entryPerimeter=0;exitX=1;exitY=1;exitDx=0;exitDy=-15;exitPerimeter=0;edgeStyle=entityRelationEdgeStyle;" edge="1" parent="1" source="PKigR5jAfMhW18SdABPB-3" target="PKigR5jAfMhW18SdABPB-2">
          <mxGeometry width="50" height="50" relative="1" as="geometry">
            <mxPoint x="180" y="250" as="sourcePoint" />
            <mxPoint x="390" y="250" as="targetPoint" />
            <Array as="points">
              <mxPoint x="260" y="70" />
              <mxPoint x="430" y="110" />
            </Array>
          </mxGeometry>
        </mxCell>
        <mxCell id="PKigR5jAfMhW18SdABPB-2" value="" style="shape=cube;whiteSpace=wrap;html=1;boundedLbl=1;backgroundOutline=1;darkOpacity=0.05;darkOpacity2=0.1;rotation=0;" vertex="1" parent="1">
          <mxGeometry x="440" y="40" width="120" height="80" as="geometry" />
        </mxCell>
        <mxCell id="PKigR5jAfMhW18SdABPB-3" value="" style="shape=cylinder3;whiteSpace=wrap;html=1;boundedLbl=1;backgroundOutline=1;size=15;rotation=0;" vertex="1" parent="1">
          <mxGeometry x="40" y="160" width="60" height="80" as="geometry" />
        </mxCell>
        <mxCell id="PKigR5jAfMhW18SdABPB-4" value="Actor" style="shape=umlActor;verticalLabelPosition=bottom;verticalAlign=top;html=1;outlineConnect=0;" vertex="1" parent="1">
          <mxGeometry x="520" y="135" width="15" height="20" as="geometry" />
        </mxCell>
        <mxCell id="PKigR5jAfMhW18SdABPB-13" style="edgeStyle=isometricEdgeStyle;rounded=0;orthogonalLoop=1;jettySize=auto;html=1;exitX=0.5;exitY=1;exitDx=0;exitDy=0;entryX=0.25;entryY=1;entryDx=0;entryDy=0;" edge="1" parent="1" source="PKigR5jAfMhW18SdABPB-5" target="PKigR5jAfMhW18SdABPB-9">
          <mxGeometry relative="1" as="geometry" />
        </mxCell>
        <mxCell id="PKigR5jAfMhW18SdABPB-5" value="" style="ellipse;whiteSpace=wrap;html=1;aspect=fixed;" vertex="1" parent="1">
          <mxGeometry x="460" y="160" width="10" height="10" as="geometry" />
        </mxCell>
        <mxCell id="PKigR5jAfMhW18SdABPB-6" value="" style="ellipse;whiteSpace=wrap;html=1;aspect=fixed;" vertex="1" parent="1">
          <mxGeometry x="500" y="160" width="10" height="10" as="geometry" />
        </mxCell>
        <mxCell id="PKigR5jAfMhW18SdABPB-9" value="" style="rounded=0;whiteSpace=wrap;html=1;" vertex="1" parent="1">
          <mxGeometry x="460" y="130" width="50" height="30" as="geometry" />
        </mxCell>
        <mxCell id="PKigR5jAfMhW18SdABPB-10" value="" style="rounded=0;whiteSpace=wrap;html=1;" vertex="1" parent="1">
          <mxGeometry x="440" y="140" width="20" height="20" as="geometry" />
        </mxCell>
        <mxCell id="PKigR5jAfMhW18SdABPB-11" value="" style="rounded=0;whiteSpace=wrap;html=1;" vertex="1" parent="1">
          <mxGeometry x="440" y="140" width="10" height="10" as="geometry" />
        </mxCell>
        <mxCell id="PKigR5jAfMhW18SdABPB-12" value="" style="ellipse;whiteSpace=wrap;html=1;aspect=fixed;" vertex="1" parent="1">
          <mxGeometry x="440" y="160" width="10" height="10" as="geometry" />
        </mxCell>
        <mxCell id="PKigR5jAfMhW18SdABPB-17" value="" style="ellipse;whiteSpace=wrap;html=1;aspect=fixed;" vertex="1" parent="1">
          <mxGeometry x="490" y="160" width="10" height="10" as="geometry" />
        </mxCell>
        <mxCell id="PKigR5jAfMhW18SdABPB-18" value="" style="endArrow=none;html=1;rounded=0;exitX=0.722;exitY=1.017;exitDx=0;exitDy=0;exitPerimeter=0;entryX=0;entryY=0;entryDx=20;entryDy=80;entryPerimeter=0;" edge="1" parent="1" source="PKigR5jAfMhW18SdABPB-3" target="PKigR5jAfMhW18SdABPB-2">
          <mxGeometry width="50" height="50" relative="1" as="geometry">
            <mxPoint x="270" y="220" as="sourcePoint" />
            <mxPoint x="320" y="170" as="targetPoint" />
            <Array as="points">
              <mxPoint x="140" y="240" />
              <mxPoint x="210" y="210" />
              <mxPoint x="330" y="160" />
              <mxPoint x="400" y="130" />
              <mxPoint x="420" y="120" />
            </Array>
          </mxGeometry>
        </mxCell>
        <mxCell id="PKigR5jAfMhW18SdABPB-19" value="" style="triangle;whiteSpace=wrap;html=1;rotation=-90;" vertex="1" parent="1">
          <mxGeometry x="40" y="115" width="60" height="90" as="geometry" />
        </mxCell>
      </root>
    </mxGraphModel>
  </diagram>
</mxfile>
